<svg width="475" height="148" viewBox="0 0 475 148" fill="none" xmlns="http://www.w3.org/2000/svg">
<rect x="2" y="2" width="96" height="138" fill="white" stroke="#134D73" stroke-width="4"/>
<path d="M26.68 123V19.32H73.272V34.936H49.592V60.664H67.64V76.536H49.592V107.512H73.528V123H26.68Z" fill="#1E79B5"/>
<rect x="125" y="2" width="348" height="138" fill="white" stroke="#134D73" stroke-width="4"/>
<path d="M82.778 147.32V49.016H103.642V54.392C106.117 52.1733 108.762 50.5093 111.578 49.4C114.394 48.2907 117.082 47.736 119.642 47.736C122.458 47.736 124.847 48.2907 126.81 49.4C128.858 50.5093 130.522 52.088 131.802 54.136C133.082 56.0987 134.021 58.4027 134.618 61.048C135.215 63.6933 135.514 66.5093 135.514 69.496V101.368C135.514 105.976 134.874 109.987 133.594 113.4C132.399 116.813 130.607 119.501 128.218 121.464C125.829 123.341 122.885 124.28 119.386 124.28C116.741 124.28 114.053 123.683 111.322 122.488C108.677 121.208 106.117 119.501 103.642 117.368V147.32H82.778ZM109.146 110.84C110.511 110.84 111.578 110.456 112.346 109.688C113.114 108.92 113.669 107.939 114.01 106.744C114.437 105.464 114.65 104.056 114.65 102.52V67.96C114.65 66.5093 114.479 65.2293 114.138 64.12C113.797 62.9253 113.242 61.9867 112.474 61.304C111.706 60.6213 110.725 60.28 109.53 60.28C108.421 60.28 107.354 60.536 106.33 61.048C105.391 61.4747 104.495 62.072 103.642 62.84V108.92C104.581 109.517 105.477 109.987 106.33 110.328C107.269 110.669 108.207 110.84 109.146 110.84Z" fill="#1E79B5"/>
<path d="M147.531 123V49.016H168.395V123H147.531ZM147.403 36.472V22.008H168.395V36.472H147.403Z" fill="#1E79B5"/>
<path d="M205.342 124.28C199.966 124.28 195.358 123.299 191.518 121.336C187.763 119.373 184.862 116.557 182.814 112.888C180.766 109.219 179.742 104.781 179.742 99.576V72.44C179.742 67.1493 180.766 62.6693 182.814 59C184.862 55.3307 187.763 52.5573 191.518 50.68C195.358 48.7173 199.966 47.736 205.342 47.736C210.633 47.736 215.113 48.5467 218.782 50.168C222.537 51.7893 225.395 54.264 227.358 57.592C229.321 60.8347 230.302 64.9733 230.302 70.008V77.816H210.206V69.368C210.206 67.4053 209.993 65.912 209.566 64.888C209.225 63.7787 208.67 63.0107 207.902 62.584C207.219 62.1573 206.366 61.944 205.342 61.944C204.318 61.944 203.465 62.2427 202.782 62.84C202.099 63.352 201.587 64.248 201.246 65.528C200.905 66.7227 200.734 68.4293 200.734 70.648V101.368C200.734 104.696 201.118 106.957 201.886 108.152C202.739 109.347 203.934 109.944 205.47 109.944C206.579 109.944 207.475 109.731 208.158 109.304C208.841 108.792 209.353 108.024 209.694 107C210.035 105.891 210.206 104.44 210.206 102.648V92.792H230.302V101.752C230.302 106.701 229.278 110.883 227.23 114.296C225.267 117.624 222.409 120.141 218.654 121.848C214.985 123.469 210.547 124.28 205.342 124.28Z" fill="#1E79B5"/>
<path d="M286.751 124.536C278.9 124.536 272.671 123.128 268.063 120.312C263.54 117.411 260.34 113.4 258.463 108.28C256.586 103.075 255.647 96.9733 255.647 89.976V52.6C255.647 45.432 256.586 39.288 258.463 34.168C260.34 28.9627 263.54 24.952 268.063 22.136C272.671 19.32 278.9 17.912 286.751 17.912C294.431 17.912 300.404 19.192 304.671 21.752C309.023 24.2267 312.095 27.7253 313.887 32.248C315.679 36.7707 316.575 41.976 316.575 47.864V56.824H294.175V46.456C294.175 44.408 294.047 42.4453 293.791 40.568C293.62 38.6907 293.023 37.1547 291.999 35.96C290.975 34.68 289.226 34.04 286.751 34.04C284.362 34.04 282.57 34.68 281.375 35.96C280.266 37.24 279.54 38.8613 279.199 40.824C278.943 42.7013 278.815 44.7067 278.815 46.84V95.608C278.815 97.912 278.986 100.045 279.327 102.008C279.754 103.885 280.522 105.421 281.631 106.616C282.826 107.725 284.532 108.28 286.751 108.28C289.14 108.28 290.847 107.683 291.871 106.488C292.895 105.208 293.535 103.587 293.791 101.624C294.047 99.6613 294.175 97.656 294.175 95.608V84.728H316.575V93.688C316.575 99.576 315.679 104.867 313.887 109.56C312.18 114.168 309.151 117.837 304.799 120.568C300.532 123.213 294.516 124.536 286.751 124.536Z" fill="#134D73"/>
<path d="M356.7 124.536C350.215 124.536 344.796 123.384 340.444 121.08C336.092 118.776 332.807 115.235 330.588 110.456C328.369 105.592 327.132 99.32 326.876 91.64L346.46 88.696C346.545 93.1333 346.929 96.7173 347.612 99.448C348.38 102.179 349.404 104.141 350.684 105.336C352.049 106.531 353.671 107.128 355.548 107.128C357.937 107.128 359.473 106.317 360.156 104.696C360.924 103.075 361.308 101.368 361.308 99.576C361.308 95.3093 360.284 91.7253 358.236 88.824C356.188 85.8373 353.415 82.8507 349.916 79.864L340.956 72.056C337.031 68.728 333.703 64.9733 330.972 60.792C328.327 56.5253 327.004 51.2773 327.004 45.048C327.004 36.2587 329.607 29.56 334.812 24.952C340.017 20.2587 347.1 17.912 356.06 17.912C361.607 17.912 366.044 18.8507 369.372 20.728C372.785 22.6053 375.345 25.08 377.052 28.152C378.844 31.1387 380.039 34.3387 380.636 37.752C381.319 41.08 381.703 44.28 381.788 47.352L362.076 49.784C361.991 46.712 361.777 44.0667 361.436 41.848C361.18 39.544 360.583 37.7947 359.644 36.6C358.705 35.32 357.255 34.68 355.292 34.68C353.159 34.68 351.58 35.576 350.556 37.368C349.617 39.16 349.148 40.952 349.148 42.744C349.148 46.584 350.044 49.7413 351.836 52.216C353.713 54.6053 356.145 57.1227 359.132 59.768L367.708 67.32C372.231 71.16 376.028 75.512 379.1 80.376C382.257 85.24 383.836 91.256 383.836 98.424C383.836 103.288 382.727 107.725 380.508 111.736C378.289 115.661 375.132 118.776 371.036 121.08C367.025 123.384 362.247 124.536 356.7 124.536Z" fill="#134D73"/>
<path d="M420.45 124.536C413.965 124.536 408.546 123.384 404.194 121.08C399.842 118.776 396.557 115.235 394.338 110.456C392.119 105.592 390.882 99.32 390.626 91.64L410.21 88.696C410.295 93.1333 410.679 96.7173 411.362 99.448C412.13 102.179 413.154 104.141 414.434 105.336C415.799 106.531 417.421 107.128 419.298 107.128C421.687 107.128 423.223 106.317 423.906 104.696C424.674 103.075 425.058 101.368 425.058 99.576C425.058 95.3093 424.034 91.7253 421.986 88.824C419.938 85.8373 417.165 82.8507 413.666 79.864L404.706 72.056C400.781 68.728 397.453 64.9733 394.722 60.792C392.077 56.5253 390.754 51.2773 390.754 45.048C390.754 36.2587 393.357 29.56 398.562 24.952C403.767 20.2587 410.85 17.912 419.81 17.912C425.357 17.912 429.794 18.8507 433.122 20.728C436.535 22.6053 439.095 25.08 440.802 28.152C442.594 31.1387 443.789 34.3387 444.386 37.752C445.069 41.08 445.453 44.28 445.538 47.352L425.826 49.784C425.741 46.712 425.527 44.0667 425.186 41.848C424.93 39.544 424.333 37.7947 423.394 36.6C422.455 35.32 421.005 34.68 419.042 34.68C416.909 34.68 415.33 35.576 414.306 37.368C413.367 39.16 412.898 40.952 412.898 42.744C412.898 46.584 413.794 49.7413 415.586 52.216C417.463 54.6053 419.895 57.1227 422.882 59.768L431.458 67.32C435.981 71.16 439.778 75.512 442.85 80.376C446.007 85.24 447.586 91.256 447.586 98.424C447.586 103.288 446.477 107.725 444.258 111.736C442.039 115.661 438.882 118.776 434.786 121.08C430.775 123.384 425.997 124.536 420.45 124.536Z" fill="#134D73"/>
</svg>
